<svg width="32" height="32" viewBox="0 0 23 27" fill="none" xmlns="http://www.w3.org/2000/svg">
    <g clip-path="url(#clip0)">
    <path fill-rule="evenodd" clip-rule="evenodd" d="M10.9455 0.81668C11.1236 0.718252 11.3398 0.718251 11.5179 0.81668L22.1574 6.69535C22.3462 6.79965 22.4634 6.99839 22.4634 7.21418V10.2388C22.4634 10.4536 22.3474 10.6515 22.1601 10.7562L21.1239 11.3357C20.7291 11.5565 20.2429 11.2709 20.2429 10.8184V8.44114C20.2429 8.22532 20.1257 8.02658 19.9369 7.92229L11.5179 3.27055C11.3398 3.17212 11.1236 3.17212 10.9455 3.27055L2.52654 7.92229C2.33777 8.02658 2.22057 8.22532 2.22057 8.44114V10.8184C2.22057 11.2709 1.73424 11.5565 1.33951 11.3357L0.303312 10.7562C0.116032 10.6515 0 10.4536 0 10.2388V7.21418C0 6.99839 0.1172 6.79965 0.305965 6.69535L10.9455 0.81668ZM2.52654 18.9809C2.33777 18.8767 2.22057 18.6779 2.22057 18.4622V15.7351C2.22057 15.5203 2.10453 15.3224 1.91726 15.2177L0.881061 14.6382C0.486326 14.4175 0 14.703 0 15.1556V19.69C0 19.9053 0.116643 20.1037 0.304702 20.2082L10.8738 26.0816C11.0517 26.1804 11.2677 26.1811 11.446 26.0832L22.1559 20.2076C22.3455 20.1035 22.4634 19.9043 22.4634 19.6879V15.1556C22.4634 14.703 21.9771 14.4175 21.5824 14.6382L20.5461 15.2177C20.3589 15.3224 20.2429 15.5203 20.2429 15.7351V18.4622C20.2429 18.6779 20.1257 18.8767 19.9369 18.9809L18.007 20.0473C17.6122 20.2654 17.1286 19.9796 17.1286 19.5285V10.7513C17.1286 10.4239 16.8634 10.1586 16.5364 10.1586H11.1595H5.78265C5.4556 10.1586 5.19047 10.4239 5.19047 10.7513V19.4487C5.19047 19.8999 4.70675 20.1856 4.31207 19.9675L2.52654 18.9809Z" fill="#0866FF"/>
    </g>
    <defs>
    <clipPath id="clip0">
    <rect width="22.4634" height="26.3571" fill="white" transform="translate(0 0.451965)"/>
    </clipPath>
    </defs>
</svg>
