<svg width="93" height="27" viewBox="0 0 93 27" fill="none" xmlns="http://www.w3.org/2000/svg">
    <g clip-path="url(#clip0_2241_843)">
    <path fill-rule="evenodd" clip-rule="evenodd" d="M10.9455 0.81668C11.1236 0.718252 11.3398 0.718251 11.5179 0.81668L22.1574 6.69535C22.3462 6.79965 22.4634 6.99839 22.4634 7.21418V10.2388C22.4634 10.4536 22.3474 10.6515 22.1601 10.7562L21.1239 11.3357C20.7291 11.5565 20.2429 11.2709 20.2429 10.8184V8.44114C20.2429 8.22532 20.1257 8.02658 19.9369 7.92229L11.5179 3.27055C11.3398 3.17212 11.1236 3.17212 10.9455 3.27055L2.52654 7.92229C2.33777 8.02658 2.22057 8.22532 2.22057 8.44114V10.8184C2.22057 11.2709 1.73424 11.5565 1.33951 11.3357L0.303312 10.7562C0.116032 10.6515 0 10.4536 0 10.2388V7.21418C0 6.99839 0.1172 6.79965 0.305965 6.69535L10.9455 0.81668ZM2.52654 18.9809C2.33777 18.8767 2.22057 18.6779 2.22057 18.4622V15.7351C2.22057 15.5203 2.10453 15.3224 1.91726 15.2177L0.881061 14.6382C0.486326 14.4175 0 14.703 0 15.1556V19.69C0 19.9053 0.116643 20.1037 0.304702 20.2082L10.8738 26.0816C11.0517 26.1804 11.2677 26.1811 11.446 26.0832L22.1559 20.2076C22.3455 20.1035 22.4634 19.9043 22.4634 19.6879V15.1556C22.4634 14.703 21.9771 14.4175 21.5824 14.6382L20.5461 15.2177C20.3589 15.3224 20.2429 15.5203 20.2429 15.7351V18.4622C20.2429 18.6779 20.1257 18.8767 19.9369 18.9809L18.007 20.0473C17.6122 20.2654 17.1286 19.9796 17.1286 19.5285V10.7513C17.1286 10.4239 16.8634 10.1586 16.5364 10.1586H11.1595H5.78265C5.4556 10.1586 5.19047 10.4239 5.19047 10.7513V19.4487C5.19047 19.8999 4.70675 20.1856 4.31207 19.9675L2.52654 18.9809Z" fill="#0866FF"/>
    </g>
    <path d="M37.5581 7.2036C37.785 7.2036 37.9871 7.34709 38.062 7.56132L42.5583 20.4346C42.5644 20.452 42.5675 20.4703 42.5675 20.4888C42.5675 20.5795 42.4939 20.653 42.4032 20.653H39.6183C39.3841 20.653 39.1772 20.5004 39.1083 20.2766L38.5526 18.4741C38.4836 18.2503 38.2768 18.0976 38.0426 18.0976H33.835C33.6008 18.0976 33.394 18.2503 33.325 18.4741L32.7694 20.2766C32.7004 20.5004 32.4935 20.653 32.2593 20.653H29.6282C29.5375 20.653 29.4639 20.5794 29.4639 20.4887C29.4639 20.4703 29.467 20.452 29.473 20.4347L33.9505 7.56197C34.0251 7.3474 34.2274 7.2036 34.4545 7.2036H37.5581ZM34.4838 14.7533C34.3764 15.097 34.6331 15.4462 34.9932 15.4462H36.8844C37.2445 15.4462 37.5013 15.097 37.3939 14.7533L35.9887 10.2568C35.9819 10.235 35.9617 10.2201 35.9388 10.2201C35.916 10.2201 35.8957 10.235 35.8889 10.2568L34.4838 14.7533Z" fill="#0F172A"/>
    <path d="M44.6411 20.653C44.3463 20.653 44.1074 20.4141 44.1074 20.1193V6.96877C44.1074 6.67401 44.3463 6.43506 44.6411 6.43506H46.5326C46.8273 6.43506 47.0663 6.67401 47.0663 6.96877V20.1193C47.0663 20.4141 46.8273 20.653 46.5326 20.653H44.6411Z" fill="#0F172A"/>
    <path d="M49.7162 20.653C49.4214 20.653 49.1825 20.4141 49.1825 20.1193V6.96877C49.1825 6.67401 49.4214 6.43506 49.7162 6.43506H51.6076C51.9024 6.43506 52.1413 6.67401 52.1413 6.96877V11.5125C52.1413 11.5415 52.1648 11.5651 52.1938 11.5651C52.2093 11.5651 52.224 11.5582 52.234 11.5465C52.8737 10.8031 53.7843 10.4315 54.9657 10.4315C56.0929 10.4315 56.9959 10.7581 57.6748 11.4114C58.3537 12.0646 58.6931 12.942 58.6931 14.0436V20.1193C58.6931 20.4141 58.4542 20.653 58.1594 20.653H56.268C55.9732 20.653 55.7343 20.4141 55.7343 20.1193V14.9658C55.7343 13.7362 55.1707 13.1214 54.0435 13.1214C53.5055 13.1214 53.0508 13.3007 52.6793 13.6593C52.3207 14.018 52.1413 14.4919 52.1413 15.0811V20.1193C52.1413 20.4141 51.9024 20.653 51.6076 20.653H49.7162Z" fill="#0F172A"/>
    <path d="M65.3018 20.826C63.7647 20.826 62.5479 20.3392 61.6513 19.3657C60.7674 18.3794 60.3255 17.137 60.3255 15.6383C60.3255 14.1397 60.7546 12.8972 61.6128 11.9109C62.471 10.9246 63.6815 10.4315 65.2442 10.4315C66.73 10.4315 67.902 10.899 68.7602 11.834C69.6184 12.7563 70.0475 13.9219 70.0475 15.3309V15.8924C70.0475 16.1871 69.8086 16.4261 69.5138 16.4261H63.887C63.5879 16.4261 63.3396 16.6742 63.3996 16.9672C63.4745 17.3339 63.6219 17.6402 63.8416 17.8863C64.1618 18.2449 64.6486 18.4243 65.3018 18.4243C66.0552 18.4243 66.5821 18.202 66.8824 17.7575C67.0079 17.5718 67.1993 17.4252 67.4235 17.4252H69.2954C69.6209 17.4252 69.8739 17.7164 69.7742 18.0264C69.5487 18.7274 69.1147 19.334 68.472 19.8461C67.6651 20.4993 66.6083 20.826 65.3018 20.826ZM63.4552 14.0107C63.3641 14.302 63.6171 14.5624 63.9223 14.5624H66.47C66.7752 14.5624 67.0282 14.302 66.9371 14.0107C66.8545 13.7465 66.7192 13.5205 66.5315 13.3327C66.2369 13.0125 65.8078 12.8524 65.2442 12.8524C64.6422 12.8524 64.181 13.0125 63.8608 13.3327C63.673 13.5205 63.5378 13.7465 63.4552 14.0107Z" fill="#0F172A"/>
    <path d="M72.4001 20.653C72.1053 20.653 71.8664 20.4141 71.8664 20.1193V11.1381C71.8664 10.8433 72.1053 10.6044 72.4001 10.6044H74.0971C74.3438 10.6044 74.5584 10.7736 74.616 11.0135L74.7371 11.518C74.7437 11.5456 74.7684 11.5651 74.7968 11.5651C74.8148 11.5651 74.832 11.557 74.8438 11.5434C75.4833 10.8021 76.393 10.4315 77.5728 10.4315C78.7 10.4315 79.603 10.7581 80.2819 11.4114C80.9608 12.0646 81.3002 12.942 81.3002 14.0436V20.1193C81.3002 20.4141 81.0612 20.653 80.7665 20.653H78.875C78.5803 20.653 78.3413 20.4141 78.3413 20.1193V14.9658C78.3413 13.7362 77.7777 13.1214 76.6505 13.1214C76.1125 13.1214 75.6706 13.3007 75.3248 13.6593C74.9918 14.0052 74.8252 14.4791 74.8252 15.0811V20.1193C74.8252 20.4141 74.5863 20.653 74.2915 20.653H72.4001Z" fill="#0F172A"/>
    <path d="M86.4505 20.826C85.3489 20.826 84.4843 20.5314 83.8566 19.9421C83.2418 19.3529 82.9344 18.5972 82.9344 17.6749C82.9344 16.7143 83.2674 15.9585 83.9335 15.4078C84.6124 14.857 85.6243 14.5816 86.9692 14.5816C87.5013 14.5816 87.9792 14.6185 88.403 14.6924C88.7618 14.7549 89.1211 14.4936 89.1211 14.1293V14.0436C89.1211 13.6721 88.993 13.3775 88.7369 13.1598C88.4935 12.9292 88.1092 12.8139 87.584 12.8139C87.1357 12.8139 86.7771 12.9228 86.5081 13.1406C86.404 13.2239 86.321 13.3167 86.2592 13.419C86.1068 13.6713 85.8849 13.9283 85.5901 13.9283H83.8908C83.596 13.9283 83.3522 13.6881 83.393 13.3962C83.5013 12.6207 83.8544 11.9655 84.4523 11.4306C85.1952 10.7645 86.2711 10.4315 87.6801 10.4315C89.0251 10.4315 90.0946 10.7709 90.8888 11.4498C91.6829 12.1158 92.08 12.9805 92.08 14.0436V20.1193C92.08 20.4141 91.8411 20.653 91.5463 20.653H89.8518C89.6039 20.653 89.3886 20.4823 89.3321 20.241L89.2283 19.7976C89.2218 19.7697 89.1969 19.75 89.1683 19.75C89.1505 19.75 89.1336 19.7577 89.1218 19.771C88.4951 20.4743 87.6046 20.826 86.4505 20.826ZM87.1998 18.5203C87.789 18.5203 88.2565 18.373 88.6024 18.0784C88.9482 17.7838 89.1211 17.4188 89.1211 16.9833C89.1211 16.9252 89.086 16.8727 89.0317 16.8522C88.5167 16.6578 87.9445 16.5606 87.3151 16.5606C86.8539 16.5606 86.4953 16.6502 86.2391 16.8296C85.9829 17.0089 85.8548 17.2394 85.8548 17.5212C85.8548 17.8158 85.9701 18.0592 86.2007 18.2514C86.4312 18.4307 86.7643 18.5203 87.1998 18.5203Z" fill="#0F172A"/>
    <defs>
    <clipPath id="clip0_2241_843">
    <rect width="22.4634" height="26.3571" fill="white" transform="translate(0 0.451965)"/>
    </clipPath>
    </defs>
</svg>
